<svg xmlns="http://www.w3.org/2000/svg" xmlns:xlink="http://www.w3.org/1999/xlink" width="500" zoomAndPan="magnify" viewBox="0 0 375 374.999991" height="500" preserveAspectRatio="xMidYMid meet" version="1.2"><defs><clipPath id="b7f75a6376"><path d="M 103.917969 316.796875 L 161.449219 316.796875 L 161.449219 342.554688 L 103.917969 342.554688 Z M 103.917969 316.796875 "/></clipPath><clipPath id="cdd257791a"><path d="M 115.222656 316.796875 L 140.980469 316.796875 L 140.980469 342.554688 L 115.222656 342.554688 Z M 115.222656 316.796875 "/></clipPath><clipPath id="ecb07bbdff"><path d="M 128.101562 316.796875 C 120.988281 316.796875 115.222656 322.5625 115.222656 329.675781 C 115.222656 336.789062 120.988281 342.554688 128.101562 342.554688 C 135.214844 342.554688 140.980469 336.789062 140.980469 329.675781 C 140.980469 322.5625 135.214844 316.796875 128.101562 316.796875 Z M 128.101562 316.796875 "/></clipPath><clipPath id="d956bb6b35"><path d="M 201.4375 315.039062 L 250.148438 315.039062 L 250.148438 344.308594 L 201.4375 344.308594 Z M 201.4375 315.039062 "/></clipPath><clipPath id="6690261707"><path d="M 212.914062 316.796875 L 238.671875 316.796875 L 238.671875 342.554688 L 212.914062 342.554688 Z M 212.914062 316.796875 "/></clipPath><clipPath id="eccfab8b68"><path d="M 225.792969 316.796875 C 218.679688 316.796875 212.914062 322.5625 212.914062 329.675781 C 212.914062 336.789062 218.679688 342.554688 225.792969 342.554688 C 232.90625 342.554688 238.671875 336.789062 238.671875 329.675781 C 238.671875 322.5625 232.90625 316.796875 225.792969 316.796875 Z M 225.792969 316.796875 "/></clipPath></defs><g id="d5d823ed24"><g style="fill:#000000;fill-opacity:1;"><g transform="translate(294.094981, 351.753627)"><path style="stroke:none" d="M -220.75 -10.9375 L -220.75 -34.390625 C -220.75 -51.484375 -214.960938 -66.648438 -203.390625 -79.890625 C -191.828125 -93.128906 -176.976562 -104.226562 -158.84375 -113.1875 C -141.75 -122.351562 -122.9375 -129.644531 -102.40625 -135.0625 C -81.875 -140.488281 -61.492188 -144.347656 -41.265625 -146.640625 L -220.75 -146.640625 L -220.75 -170.09375 L 0 -170.09375 L 0 -146.640625 C -16.675781 -146.640625 -34.289062 -145.335938 -52.84375 -142.734375 C -71.394531 -140.128906 -89.738281 -136.269531 -107.875 -131.15625 C -126.007812 -126.050781 -142.582031 -119.644531 -157.59375 -111.9375 C -175.507812 -102.550781 -190.148438 -91.5 -201.515625 -78.78125 C -212.878906 -66.070312 -218.5625 -51.273438 -218.5625 -34.390625 L 0 -34.390625 L 0 -10.9375 Z M -220.75 -10.9375 "/></g></g><g style="fill:#000000;fill-opacity:1;"><g transform="translate(294.093413, 216.507657)"><path style="stroke:none" d="M -120.0625 -85.046875 C -120.0625 -78.585938 -118.65625 -73.164062 -115.84375 -68.78125 C -113.03125 -64.40625 -109.851562 -60.96875 -106.3125 -58.46875 C -102.769531 -55.96875 -99.953125 -54.195312 -97.859375 -53.15625 C -84.523438 -47.320312 -69.988281 -42.785156 -54.25 -39.546875 C -38.507812 -36.316406 -20.425781 -34.703125 0 -34.703125 L 0 -10.9375 L -220.75 -10.9375 L -220.75 -34.703125 L -40.015625 -34.703125 C -59.398438 -37.203125 -76.546875 -41.367188 -91.453125 -47.203125 C -106.359375 -53.046875 -120.21875 -60.34375 -133.03125 -69.09375 C -145.851562 -77.851562 -158.832031 -87.753906 -171.96875 -98.796875 C -171.96875 -98.796875 -173.269531 -99.835938 -175.875 -101.921875 C -178.476562 -104.015625 -181.757812 -106.414062 -185.71875 -109.125 C -189.6875 -111.832031 -193.910156 -114.226562 -198.390625 -116.3125 C -202.867188 -118.394531 -207.140625 -119.488281 -211.203125 -119.59375 C -215.273438 -119.695312 -218.457031 -118.082031 -220.75 -114.75 L -220.75 -166.65625 C -219.707031 -161.238281 -217.617188 -155.765625 -214.484375 -150.234375 C -211.359375 -144.710938 -208.023438 -139.660156 -204.484375 -135.078125 C -200.941406 -130.492188 -197.921875 -126.789062 -195.421875 -123.96875 C -192.921875 -121.15625 -191.671875 -119.644531 -191.671875 -119.4375 C -177.703125 -107.351562 -164.460938 -96.253906 -151.953125 -86.140625 C -139.453125 -76.023438 -126.113281 -67.21875 -111.9375 -59.71875 C -114.644531 -62.425781 -117.09375 -65.863281 -119.28125 -70.03125 C -121.46875 -74.207031 -122.5625 -79.210938 -122.5625 -85.046875 C -122.5625 -96.097656 -120.53125 -105.269531 -116.46875 -112.5625 C -112.40625 -119.851562 -107.035156 -125.945312 -100.359375 -130.84375 C -93.691406 -135.75 -86.289062 -140.023438 -78.15625 -143.671875 C -70.03125 -147.316406 -61.90625 -150.910156 -53.78125 -154.453125 C -44.601562 -158.628906 -36.109375 -162.75 -28.296875 -166.8125 C -20.484375 -170.875 -14.226562 -175.507812 -9.53125 -180.71875 C -4.84375 -185.9375 -2.5 -192.191406 -2.5 -199.484375 L 0 -199.484375 C 0 -183.222656 -2.1875 -170.347656 -6.5625 -160.859375 C -10.9375 -151.378906 -16.664062 -144.191406 -23.75 -139.296875 C -30.84375 -134.398438 -38.660156 -130.957031 -47.203125 -128.96875 C -55.753906 -126.988281 -64.300781 -125.375 -72.84375 -124.125 C -81.394531 -122.875 -89.210938 -121.15625 -96.296875 -118.96875 C -103.390625 -116.78125 -109.125 -113.132812 -113.5 -108.03125 C -117.875 -102.925781 -120.0625 -95.265625 -120.0625 -85.046875 Z M -120.0625 -85.046875 "/></g></g><g clip-rule="nonzero" clip-path="url(#b7f75a6376)"><path style=" stroke:none;fill-rule:nonzero;fill:#ffffff;fill-opacity:1;" d="M 103.917969 316.796875 L 161.46875 316.796875 L 161.46875 342.554688 L 103.917969 342.554688 Z M 103.917969 316.796875 "/></g><g clip-rule="nonzero" clip-path="url(#cdd257791a)"><g clip-rule="nonzero" clip-path="url(#ecb07bbdff)"><path style=" stroke:none;fill-rule:nonzero;fill:#000000;fill-opacity:1;" d="M 115.222656 316.796875 L 140.980469 316.796875 L 140.980469 342.554688 L 115.222656 342.554688 Z M 115.222656 316.796875 "/></g></g><g clip-rule="nonzero" clip-path="url(#d956bb6b35)"><path style=" stroke:none;fill-rule:nonzero;fill:#ffffff;fill-opacity:1;" d="M 201.4375 315.039062 L 250.140625 315.039062 L 250.140625 344.308594 L 201.4375 344.308594 Z M 201.4375 315.039062 "/></g><g clip-rule="nonzero" clip-path="url(#6690261707)"><g clip-rule="nonzero" clip-path="url(#eccfab8b68)"><path style=" stroke:none;fill-rule:nonzero;fill:#000000;fill-opacity:1;" d="M 212.914062 316.796875 L 238.671875 316.796875 L 238.671875 342.554688 L 212.914062 342.554688 Z M 212.914062 316.796875 "/></g></g></g></svg>