<?xml version="1.0" encoding="UTF-8"?>
<svg id="Calque_1" xmlns="http://www.w3.org/2000/svg" xmlns:xlink="http://www.w3.org/1999/xlink" version="1.1" viewBox="0 0 500 500">
  <!-- Generator: Adobe Illustrator 29.1.0, SVG Export Plug-In . SVG Version: 2.1.0 Build 142)  -->
  <defs>
    <style>
      .st0 {
        fill: none;
      }

      .st1 {
        clip-path: url(#clippath-4);
      }

      .st2 {
        clip-path: url(#clippath-7);
      }

      .st3 {
        clip-path: url(#clippath-6);
      }

      .st4 {
        clip-path: url(#clippath-5);
      }
    </style>
    <clipPath id="clippath">
      <rect class="st0" x="153.6" y="422.4" width="34.3" height="34.3"/>
    </clipPath>
    <clipPath id="clippath-2">
      <rect class="st0" x="283.9" y="422.4" width="34.3" height="34.3"/>
    </clipPath>
    <clipPath id="clippath-4">
      <rect class="st0" x="153.6" y="422.4" width="34.3" height="34.3"/>
    </clipPath>
    <clipPath id="clippath-5">
      <circle class="st0" cx="170.8" cy="439.6" r="17.2"/>
    </clipPath>
    <clipPath id="clippath-6">
      <rect class="st0" x="283.9" y="422.4" width="34.3" height="34.3"/>
    </clipPath>
    <clipPath id="clippath-7">
      <circle class="st0" cx="301.1" cy="439.6" r="17.2"/>
    </clipPath>
    <clipPath id="clippath-8">
      <rect class="st0" x="153.6" y="422.4" width="34.3" height="34.3"/>
    </clipPath>
    <clipPath id="clippath-10">
      <rect class="st0" x="283.9" y="422.4" width="34.3" height="34.3"/>
    </clipPath>
  </defs>
  <g id="_x37_66adf3929">
    <g>
      <path d="M232,175.3c0,8.6,1.9,15.8,5.6,21.7,3.8,5.8,8,10.4,12.7,13.8,4.7,3.3,8.5,5.7,11.3,7.1,17.8,7.8,37.2,13.8,58.1,18.1,21,4.3,45.1,6.5,72.3,6.5v31.7H97.8v-31.7h241c-25.8-3.3-48.7-8.9-68.6-16.7-19.9-7.8-38.4-17.5-55.4-29.2-17.1-11.7-34.4-24.9-51.9-39.6,0,0-1.7-1.4-5.2-4.2-3.5-2.8-7.8-6-13.1-9.6-5.3-3.6-10.9-6.8-16.9-9.6-6-2.8-11.7-4.2-17.1-4.4-5.4-.1-9.7,2-12.7,6.5v-69.2c1.4,7.2,4.2,14.5,8.4,21.9,4.2,7.4,8.6,14.1,13.3,20.2,4.7,6.1,8.8,11.1,12.1,14.8,3.3,3.8,5,5.8,5,6,18.6,16.1,36.3,30.9,53,44.4,16.7,13.5,34.5,25.2,53.4,35.2-3.6-3.6-6.9-8.2-9.8-13.8-2.9-5.6-4.4-12.2-4.4-20,0-14.7,2.7-27,8.1-36.7,5.4-9.7,12.6-17.8,21.5-24.4,8.9-6.5,18.8-12.2,29.6-17.1,10.8-4.9,21.7-9.7,32.5-14.4,12.2-5.6,23.6-11.1,34-16.5s18.8-11.6,25-18.5c6.3-7,9.4-15.3,9.4-25h3.3c0,21.7-2.9,38.8-8.8,51.5-5.8,12.6-13.5,22.2-22.9,28.8-9.5,6.5-19.9,11.1-31.3,13.8-11.4,2.6-22.8,4.8-34.2,6.5-11.4,1.7-21.8,4-31.3,6.9-9.5,2.9-17.1,7.8-22.9,14.6-5.8,6.8-8.8,17-8.8,30.6Z"/>
      <g class="st1">
        <g class="st4">
          <rect x="153.6" y="422.4" width="34.3" height="34.3"/>
        </g>
      </g>
      <g>
        <rect x="215.3" y="423.2" width="53.3" height="31.3"/>
        <path d="M97.8,242.2v31.3h239.3c-27,3.1-54.1,8.2-81.5,15.4-27.4,7.2-52.5,16.9-75.2,29.2-24.2,11.9-44,26.7-59.4,44.4-15.4,17.7-23.1,37.9-23.1,60.7v31.3h40.8v-31.3h-37.8c0-22.5,7.6-42.2,22.7-59.2,15.2-17,34.7-31.7,58.6-44.2,20-10.3,42.1-18.8,66.3-25.6,24.2-6.8,48.6-12,73.4-15.4,24.7-3.5,48.2-5.2,70.5-5.2v-31.3H97.8Z"/>
        <rect x="333.5" y="423.2" width="58.6" height="31.3"/>
      </g>
      <g class="st3">
        <g class="st2">
          <rect x="283.9" y="422.4" width="34.3" height="34.3"/>
        </g>
      </g>
    </g>
  </g>
</svg>